<?xml version="1.0" encoding="UTF-8"?>
<svg id="Capa_1" data-name="Capa 1" xmlns="http://www.w3.org/2000/svg" viewBox="0 0 581.23 578.73">
  <defs>
    <style>
      .cls-1 {
        fill: #0042cd;
      }
    </style>
  </defs>
  <path class="cls-1" d="M520.69,62.15v-.68h-122.66v.68h-7.26v146.63l-201.77-116.49-39.19-22.63v45.26l39.19,22.63,201.77,116.49,39.19,22.63,71.13,41.06v75.02l-71.13-41.06-39.19-22.63-201.77-116.49-39.19-22.63-69.67-40.23-39.19-22.63v390.17h148.06v-140.87l201.77,116.49,39.19,22.63v-45.26l-39.19-22.63-201.77-116.49-39.19-22.63-69.67-40.23v-73.31l69.67,40.23,39.19,22.63,201.77,116.49,39.19,22.63,71.13,41.06,39.19,22.63V62.15h-19.6ZM149.81,353.76v124.3h-69.67v-164.53l69.67,40.23ZM429.97,231.41V100.66h71.13v171.81l-71.13-41.06Z"/>
</svg>