<?xml version="1.0" encoding="UTF-8"?>
<svg id="Capa_1" data-name="Capa 1" xmlns="http://www.w3.org/2000/svg" viewBox="0 0 1920 578.73">
  <defs>
    <style>
      .cls-1 {
        fill: #000d36;
      }
    </style>
  </defs>
  <path class="cls-1" d="M535.86,90.9v-.59h-107.65v.59h-6.37v127.93l-177.08-101.63-34.4-19.74v39.48l34.4,19.74,177.08,101.63,34.4,19.74,62.42,35.83v65.45l-62.42-35.83-34.4-19.74-177.08-101.63-34.4-19.74-61.15-35.09-34.4-19.74v340.39h129.95v-122.9l177.08,101.63,34.4,19.74v-39.48l-34.4-19.74-177.08-101.63-34.4-19.74-61.15-35.09v-63.96l61.15,35.09,34.4,19.74,177.08,101.63,34.4,19.74,62.42,35.83,34.4,19.74V90.9h-17.2ZM210.36,345.31v108.45h-61.15v-143.54l61.15,35.09ZM456.23,238.57v-114.07h62.42v149.89l-62.42-35.83Z"/>
  <g>
    <g>
      <path class="cls-1" d="M615.66,140.39h69.83v24.68c16.29-20.48,38.18-30.73,66.11-30.73,26.07,0,47.95,8.85,65.64,26.54,18.16,17.69,27,39.57,27,66.11v155.5h-69.83v-136.88c0-26.54-18.62-46.56-44.23-46.56s-44.69,20.02-44.69,46.56v136.88h-69.83v-242.09Z"/>
      <path class="cls-1" d="M949.48,286.58c7.91,25.61,30.73,42.37,59.13,42.37,20.02,0,35.85-6.98,47.95-21.42l67.51,15.36c-21.88,40.5-64.25,65.65-115.93,65.65-37.71,0-69.37-12.11-94.51-36.31-25.14-24.21-37.71-54.47-37.71-90.79s12.1-66.11,36.78-90.32c24.68-24.68,54.94-36.78,91.72-36.78s66.58,12.1,91.25,36.78c24.68,24.21,36.78,54.47,36.78,90.32,0,8.85-.93,17.23-2.79,25.14h-180.17ZM1061.21,234.9c-8.85-24.68-30.73-40.97-56.8-40.97-24.68,0-46.56,16.29-54.47,40.97h111.27Z"/>
      <path class="cls-1" d="M1145.01,140.39h33.05v-50.08h69.84v50.08h54.94v60.52h-54.94v90.79c0,14.9,11.17,25.61,26.54,25.61h28.4v65.18h-40.04c-23.74,0-44.23-7.45-60.52-21.88-16.29-14.9-24.21-33.52-24.21-55.4v-104.29h-33.05v-60.52Z"/>
      <path class="cls-1" d="M1326.12,334.53l102.89-130.36h-100.56v-63.78h196.47v47.95l-102.43,130.36h104.75v63.78h-201.12v-47.95Z"/>
      <path class="cls-1" d="M1622.22,286.58c7.91,25.61,30.73,42.37,59.13,42.37,20.02,0,35.85-6.98,47.95-21.42l67.51,15.36c-21.88,40.5-64.25,65.65-115.93,65.65-37.71,0-69.37-12.11-94.51-36.31-25.14-24.21-37.71-54.47-37.71-90.79s12.1-66.11,36.78-90.32c24.68-24.68,54.94-36.78,91.72-36.78s66.58,12.1,91.25,36.78c24.68,24.21,36.78,54.47,36.78,90.32,0,8.85-.93,17.23-2.79,25.14h-180.17ZM1733.96,234.9c-8.85-24.68-30.73-40.97-56.8-40.97-24.68,0-46.56,16.29-54.47,40.97h111.27Z"/>
    </g>
    <g>
      <path class="cls-1" d="M615.66,487.67v-47.94h5.41l29.65,37.26v-37.26h5.96v47.94h-5.41l-29.65-37.26v37.26h-5.96Z"/>
      <path class="cls-1" d="M715.58,439.73v5.75h-28.35v15.07h24.86v5.75h-24.86v15.61h28.7v5.75h-34.86v-47.94h34.52Z"/>
      <path class="cls-1" d="M741.88,446.03c4.79-4.73,10.75-7.05,17.94-7.05,9.59,0,17.67,4.79,21.98,12.46l-6.03,2.26c-3.22-5.41-9.11-8.77-15.96-8.77-5.27,0-9.73,1.78-13.35,5.41-3.63,3.56-5.41,8.01-5.41,13.35s1.71,9.79,5.2,13.42c3.49,3.56,7.74,5.34,12.81,5.34,4.38,0,8.22-1.37,11.57-4.04,3.36-2.74,5.41-6.23,6.16-10.48h-19.04v-5.75h25.96c.07.82.14,1.51.14,2.05-.14,6.85-2.53,12.6-7.26,17.26-4.73,4.59-10.48,6.92-17.33,6.92s-12.81-2.33-17.53-7.05c-4.73-4.72-7.05-10.61-7.05-17.67s2.4-12.94,7.19-17.67Z"/>
      <path class="cls-1" d="M846.87,446.1c4.73,4.72,7.12,10.55,7.12,17.6s-2.4,12.94-7.12,17.67c-4.72,4.73-10.61,7.05-17.67,7.05s-12.94-2.33-17.67-7.05c-4.73-4.72-7.05-10.61-7.05-17.67s2.33-12.88,7.05-17.6c4.72-4.73,10.61-7.12,17.67-7.12s12.94,2.4,17.67,7.12ZM842.28,477.12c3.49-3.63,5.27-8.08,5.27-13.42s-1.78-9.79-5.27-13.35c-3.49-3.63-7.81-5.41-13.08-5.41s-9.59,1.78-13.08,5.41c-3.49,3.56-5.27,8.01-5.27,13.35s1.78,9.79,5.27,13.42c3.49,3.56,7.88,5.34,13.08,5.34s9.59-1.78,13.08-5.34Z"/>
      <path class="cls-1" d="M921.04,451.44l-6.03,2.26c-3.22-5.41-8.9-8.77-15.68-8.77-5.2,0-9.59,1.78-13.08,5.41-3.49,3.56-5.27,8.01-5.27,13.35s1.78,9.79,5.27,13.42c3.49,3.56,7.88,5.34,13.08,5.34,6.78,0,12.46-3.36,15.68-8.77l6.03,2.26c-4.31,7.67-12.33,12.46-21.71,12.46-7.05,0-12.94-2.33-17.67-7.05-4.73-4.72-7.05-10.61-7.05-17.67s2.33-12.88,7.05-17.6c4.72-4.73,10.61-7.12,17.67-7.12,9.38,0,17.4,4.79,21.71,12.46Z"/>
      <path class="cls-1" d="M943.3,487.67v-47.94h6.16v47.94h-6.16Z"/>
      <path class="cls-1" d="M1014.39,446.1c4.73,4.72,7.12,10.55,7.12,17.6s-2.4,12.94-7.12,17.67c-4.72,4.73-10.61,7.05-17.67,7.05s-12.94-2.33-17.67-7.05c-4.73-4.72-7.05-10.61-7.05-17.67s2.33-12.88,7.05-17.6c4.72-4.73,10.61-7.12,17.67-7.12s12.94,2.4,17.67,7.12ZM1009.8,477.12c3.49-3.63,5.27-8.08,5.27-13.42s-1.78-9.79-5.27-13.35c-3.49-3.63-7.81-5.41-13.08-5.41s-9.59,1.78-13.08,5.41c-3.49,3.56-5.27,8.01-5.27,13.35s1.78,9.79,5.27,13.42c3.49,3.56,7.88,5.34,13.08,5.34s9.59-1.78,13.08-5.34Z"/>
      <path class="cls-1" d="M1069.18,451.44c-.82-3.63-5.07-6.51-10.34-6.51-2.81,0-5.2.68-7.12,2.12-1.85,1.37-2.81,3.08-2.81,5.2,0,2.26,1.1,3.97,3.84,5.34,2.74,1.3,4.66,1.85,9.25,3.01,3.22.82,4.93,1.23,7.88,2.67,4.18,1.99,6.64,5.14,6.92,10.75,0,4.31-1.64,7.74-4.93,10.41-3.22,2.67-7.4,3.97-12.46,3.97-4.59,0-8.56-1.1-11.78-3.22-3.22-2.12-5.27-4.86-6.16-8.22l6.16-1.85c.75,4.11,5.55,7.33,11.78,7.33,3.22,0,5.89-.75,8.01-2.19,2.12-1.51,3.22-3.42,3.22-5.75s-1.16-4.18-3.42-5.34c-2.26-1.16-3.9-1.78-6.92-2.53l-2.88-.75-2.67-.82-2.81-.96c-.55-.21-1.37-.62-2.47-1.1-2.12-1.03-2.6-1.64-4.04-2.94-1.99-1.99-2.47-4.18-2.74-7.4,0-4.04,1.51-7.33,4.52-9.86,3.01-2.53,6.85-3.84,11.57-3.84,4.18,0,7.81,1.03,10.75,3.01,3.01,1.99,4.93,4.59,5.75,7.67l-6.1,1.78Z"/>
      <path class="cls-1" d="M1131.77,487.67v-47.94h6.16v47.94h-6.16Z"/>
      <path class="cls-1" d="M1162.32,487.67v-47.94h5.41l29.65,37.26v-37.26h5.96v47.94h-5.41l-29.65-37.26v37.26h-5.96Z"/>
      <path class="cls-1" d="M1227.72,487.67v-47.94h6.16l19.31,33.69,19.24-33.69h6.16v47.94h-6.16v-36.23l-17.26,30.27h-4.04l-17.26-30.2v36.16h-6.16Z"/>
      <path class="cls-1" d="M1343.53,446.1c4.73,4.72,7.12,10.55,7.12,17.6s-2.4,12.94-7.12,17.67c-4.72,4.73-10.61,7.05-17.67,7.05s-12.94-2.33-17.67-7.05c-4.73-4.72-7.05-10.61-7.05-17.67s2.33-12.88,7.05-17.6c4.72-4.73,10.61-7.12,17.67-7.12s12.94,2.4,17.67,7.12ZM1338.94,477.12c3.49-3.63,5.27-8.08,5.27-13.42s-1.78-9.79-5.27-13.35c-3.49-3.63-7.81-5.41-13.08-5.41s-9.59,1.78-13.08,5.41c-3.49,3.56-5.27,8.01-5.27,13.35s1.78,9.79,5.27,13.42c3.49,3.56,7.88,5.34,13.08,5.34s9.59-1.78,13.08-5.34Z"/>
      <path class="cls-1" d="M1373.12,487.67v-47.94h22.74c3.9,0,7.12,1.23,9.72,3.63,2.67,2.4,3.97,5.34,3.97,8.9,0,4.31-1.78,7.67-5.41,10.07,4.73,2.19,7.74,6.64,7.74,11.92,0,3.77-1.44,6.99-4.25,9.59-2.81,2.53-6.23,3.84-10.41,3.84h-24.11ZM1379.28,445.48v14.38h16.57c4.18,0,7.33-3.08,7.33-7.19s-3.15-7.19-7.33-7.19h-16.57ZM1379.28,465.61v16.3h17.94c4.66,0,8.22-3.49,8.22-8.15,0-2.26-.82-4.18-2.4-5.75-1.58-1.58-3.49-2.4-5.82-2.4h-17.94Z"/>
      <path class="cls-1" d="M1434.14,487.67v-47.94h6.16v47.94h-6.16Z"/>
      <path class="cls-1" d="M1470.84,439.73v42.19h25.96v5.75h-32.12v-47.94h6.16Z"/>
      <path class="cls-1" d="M1517.89,487.67v-47.94h6.16v47.94h-6.16Z"/>
      <path class="cls-1" d="M1544.26,487.67l21.03-47.94h5l21.02,47.94h-6.51l-4.66-10.75h-24.72l-4.66,10.75h-6.51ZM1567.82,448.56l-9.86,22.6h19.65l-9.79-22.6Z"/>
      <path class="cls-1" d="M1633.22,439.73c4.45,0,8.15,1.44,11.09,4.25,2.94,2.81,4.45,6.37,4.45,10.55,0,6.51-3.97,11.78-10,13.9l11.78,19.24h-6.92l-11.23-18.35h-14.72v18.35h-6.16v-47.94h21.71ZM1617.68,445.48v18.08h15.55c2.6,0,4.79-.89,6.51-2.6,1.71-1.71,2.6-3.9,2.6-6.44,0-5.2-3.9-9.04-9.11-9.04h-15.55Z"/>
      <path class="cls-1" d="M1671.71,487.67v-47.94h6.16v47.94h-6.16Z"/>
      <path class="cls-1" d="M1742.8,446.1c4.73,4.72,7.12,10.55,7.12,17.6s-2.4,12.94-7.12,17.67c-4.72,4.73-10.61,7.05-17.67,7.05s-12.94-2.33-17.67-7.05c-4.73-4.72-7.05-10.61-7.05-17.67s2.33-12.88,7.05-17.6c4.72-4.73,10.61-7.12,17.67-7.12s12.94,2.4,17.67,7.12ZM1738.21,477.12c3.49-3.63,5.27-8.08,5.27-13.42s-1.78-9.79-5.27-13.35c-3.49-3.63-7.81-5.41-13.08-5.41s-9.59,1.78-13.08,5.41c-3.49,3.56-5.27,8.01-5.27,13.35s1.78,9.79,5.27,13.42c3.49,3.56,7.88,5.34,13.08,5.34s9.59-1.78,13.08-5.34Z"/>
      <path class="cls-1" d="M1797.59,451.44c-.82-3.63-5.07-6.51-10.34-6.51-2.81,0-5.2.68-7.12,2.12-1.85,1.37-2.81,3.08-2.81,5.2,0,2.26,1.1,3.97,3.84,5.34,2.74,1.3,4.66,1.85,9.25,3.01,3.22.82,4.93,1.23,7.88,2.67,4.18,1.99,6.64,5.14,6.92,10.75,0,4.31-1.64,7.74-4.93,10.41-3.22,2.67-7.4,3.97-12.46,3.97-4.59,0-8.56-1.1-11.78-3.22-3.22-2.12-5.27-4.86-6.16-8.22l6.16-1.85c.75,4.11,5.55,7.33,11.78,7.33,3.22,0,5.89-.75,8.01-2.19,2.12-1.51,3.22-3.42,3.22-5.75s-1.16-4.18-3.42-5.34c-2.26-1.16-3.9-1.78-6.92-2.53l-2.88-.75-2.67-.82-2.81-.96c-.55-.21-1.37-.62-2.47-1.1-2.12-1.03-2.6-1.64-4.04-2.94-1.99-1.99-2.47-4.18-2.74-7.4,0-4.04,1.51-7.33,4.52-9.86,3.01-2.53,6.85-3.84,11.57-3.84,4.18,0,7.81,1.03,10.75,3.01,3.01,1.99,4.93,4.59,5.75,7.67l-6.1,1.78Z"/>
    </g>
  </g>
</svg>