<?xml version="1.0" encoding="UTF-8"?>
<svg id="Capa_1" data-name="Capa 1" xmlns="http://www.w3.org/2000/svg" viewBox="0 0 180 180">
  <defs>
    <style>
      .cls-1 {
        fill: #0042cd;
      }
    </style>
  </defs>
  <path class="cls-1" d="M165.02,15.91v-.22h-39.99v.22h-2.37v47.81L56.87,25.74l-12.78-7.38v14.76l12.78,7.38,65.79,37.98,12.78,7.38,23.19,13.39v24.46l-23.19-13.39-12.78-7.38-65.79-37.98-12.78-7.38-22.72-13.12-12.78-7.38v127.22h48.28v-45.93l65.79,37.98,12.78,7.38v-14.76l-12.78-7.38-65.79-37.98-12.78-7.38-22.72-13.12v-23.9l22.72,13.12,12.78,7.38,65.79,37.98,12.78,7.38,23.19,13.39,12.78,7.38V15.91h-6.39ZM44.09,111v40.53h-22.72v-53.65l22.72,13.12ZM135.44,71.1V28.47h23.19v56.02l-23.19-13.39Z"/>
</svg>